<mxfile host="65bd71144e">
    <diagram id="8kSkan1lgSin7eKL4Wp3" name="Page-1">
        <mxGraphModel dx="940" dy="754" grid="1" gridSize="10" guides="1" tooltips="1" connect="1" arrows="1" fold="1" page="1" pageScale="1" pageWidth="850" pageHeight="1100" math="0" shadow="0">
            <root>
                <mxCell id="0"/>
                <mxCell id="1" parent="0"/>
                <mxCell id="oKQT_UKOESX0N-_K5lHX-19" style="edgeStyle=none;html=1;" edge="1" parent="1" source="gASkY3hg7c3eQzyyl7-c-1" target="oKQT_UKOESX0N-_K5lHX-18">
                    <mxGeometry relative="1" as="geometry"/>
                </mxCell>
                <mxCell id="gASkY3hg7c3eQzyyl7-c-1" value="Doctor" style="rounded=1;whiteSpace=wrap;html=1;" parent="1" vertex="1">
                    <mxGeometry x="50" y="210" width="120" height="60" as="geometry"/>
                </mxCell>
                <mxCell id="oKQT_UKOESX0N-_K5lHX-2" value="" style="edgeStyle=none;html=1;" edge="1" parent="1" source="gASkY3hg7c3eQzyyl7-c-2" target="oKQT_UKOESX0N-_K5lHX-1">
                    <mxGeometry relative="1" as="geometry"/>
                </mxCell>
                <mxCell id="oKQT_UKOESX0N-_K5lHX-3" value="" style="edgeStyle=none;html=1;" edge="1" parent="1" source="gASkY3hg7c3eQzyyl7-c-2" target="oKQT_UKOESX0N-_K5lHX-1">
                    <mxGeometry relative="1" as="geometry"/>
                </mxCell>
                <mxCell id="oKQT_UKOESX0N-_K5lHX-4" value="" style="edgeStyle=none;html=1;" edge="1" parent="1" source="gASkY3hg7c3eQzyyl7-c-2" target="oKQT_UKOESX0N-_K5lHX-1">
                    <mxGeometry relative="1" as="geometry"/>
                </mxCell>
                <mxCell id="oKQT_UKOESX0N-_K5lHX-5" value="" style="edgeStyle=none;html=1;" edge="1" parent="1" source="gASkY3hg7c3eQzyyl7-c-2" target="oKQT_UKOESX0N-_K5lHX-1">
                    <mxGeometry relative="1" as="geometry"/>
                </mxCell>
                <mxCell id="oKQT_UKOESX0N-_K5lHX-7" style="edgeStyle=none;html=1;entryX=0.5;entryY=0;entryDx=0;entryDy=0;" edge="1" parent="1" source="gASkY3hg7c3eQzyyl7-c-2" target="oKQT_UKOESX0N-_K5lHX-6">
                    <mxGeometry relative="1" as="geometry"/>
                </mxCell>
                <mxCell id="gASkY3hg7c3eQzyyl7-c-2" value="Patient" style="rounded=1;whiteSpace=wrap;html=1;" parent="1" vertex="1">
                    <mxGeometry x="330" y="210" width="120" height="60" as="geometry"/>
                </mxCell>
                <mxCell id="oKQT_UKOESX0N-_K5lHX-39" value="" style="edgeStyle=none;html=1;" edge="1" parent="1" source="gASkY3hg7c3eQzyyl7-c-3" target="oKQT_UKOESX0N-_K5lHX-40">
                    <mxGeometry relative="1" as="geometry">
                        <mxPoint x="680" y="320" as="targetPoint"/>
                    </mxGeometry>
                </mxCell>
                <mxCell id="gASkY3hg7c3eQzyyl7-c-3" value="Admin" style="rounded=1;whiteSpace=wrap;html=1;" parent="1" vertex="1">
                    <mxGeometry x="620" y="210" width="120" height="60" as="geometry"/>
                </mxCell>
                <mxCell id="oKQT_UKOESX0N-_K5lHX-30" style="edgeStyle=none;html=1;" edge="1" parent="1" source="oKQT_UKOESX0N-_K5lHX-1" target="oKQT_UKOESX0N-_K5lHX-29">
                    <mxGeometry relative="1" as="geometry"/>
                </mxCell>
                <mxCell id="oKQT_UKOESX0N-_K5lHX-1" value="Registered Patient" style="rounded=1;whiteSpace=wrap;html=1;" vertex="1" parent="1">
                    <mxGeometry x="410" y="340" width="120" height="60" as="geometry"/>
                </mxCell>
                <mxCell id="oKQT_UKOESX0N-_K5lHX-26" style="edgeStyle=none;html=1;" edge="1" parent="1" source="oKQT_UKOESX0N-_K5lHX-6" target="oKQT_UKOESX0N-_K5lHX-25">
                    <mxGeometry relative="1" as="geometry"/>
                </mxCell>
                <mxCell id="oKQT_UKOESX0N-_K5lHX-6" value="New Patient" style="rounded=1;whiteSpace=wrap;html=1;" vertex="1" parent="1">
                    <mxGeometry x="250" y="340" width="120" height="60" as="geometry"/>
                </mxCell>
                <mxCell id="oKQT_UKOESX0N-_K5lHX-21" value="" style="edgeStyle=none;html=1;entryX=0.5;entryY=0;entryDx=0;entryDy=0;" edge="1" parent="1" source="oKQT_UKOESX0N-_K5lHX-18" target="oKQT_UKOESX0N-_K5lHX-22">
                    <mxGeometry relative="1" as="geometry">
                        <mxPoint x="110" y="480" as="targetPoint"/>
                    </mxGeometry>
                </mxCell>
                <mxCell id="oKQT_UKOESX0N-_K5lHX-18" value="Registered Doctor" style="rounded=1;whiteSpace=wrap;html=1;" vertex="1" parent="1">
                    <mxGeometry x="50" y="340" width="120" height="60" as="geometry"/>
                </mxCell>
                <mxCell id="oKQT_UKOESX0N-_K5lHX-24" value="" style="edgeStyle=none;html=1;" edge="1" parent="1" source="oKQT_UKOESX0N-_K5lHX-22" target="oKQT_UKOESX0N-_K5lHX-23">
                    <mxGeometry relative="1" as="geometry"/>
                </mxCell>
                <mxCell id="oKQT_UKOESX0N-_K5lHX-22" value="Matches with id" style="shape=process;whiteSpace=wrap;html=1;backgroundOutline=1;" vertex="1" parent="1">
                    <mxGeometry x="50" y="430" width="120" height="60" as="geometry"/>
                </mxCell>
                <mxCell id="oKQT_UKOESX0N-_K5lHX-37" style="edgeStyle=none;html=1;entryX=0;entryY=1;entryDx=0;entryDy=0;" edge="1" parent="1" source="oKQT_UKOESX0N-_K5lHX-23" target="oKQT_UKOESX0N-_K5lHX-33">
                    <mxGeometry relative="1" as="geometry">
                        <Array as="points">
                            <mxPoint x="210" y="550"/>
                            <mxPoint x="210" y="330"/>
                        </Array>
                    </mxGeometry>
                </mxCell>
                <mxCell id="oKQT_UKOESX0N-_K5lHX-23" value="Menu for Log in Doctor" style="whiteSpace=wrap;html=1;" vertex="1" parent="1">
                    <mxGeometry x="50" y="540" width="120" height="60" as="geometry"/>
                </mxCell>
                <mxCell id="oKQT_UKOESX0N-_K5lHX-28" value="" style="edgeStyle=none;html=1;entryX=0.5;entryY=0;entryDx=0;entryDy=0;" edge="1" parent="1" source="oKQT_UKOESX0N-_K5lHX-25" target="oKQT_UKOESX0N-_K5lHX-27">
                    <mxGeometry relative="1" as="geometry"/>
                </mxCell>
                <mxCell id="oKQT_UKOESX0N-_K5lHX-25" value="Creates new patient" style="shape=process;whiteSpace=wrap;html=1;backgroundOutline=1;" vertex="1" parent="1">
                    <mxGeometry x="250" y="430" width="120" height="60" as="geometry"/>
                </mxCell>
                <mxCell id="oKQT_UKOESX0N-_K5lHX-32" style="edgeStyle=none;html=1;entryX=1;entryY=1;entryDx=0;entryDy=0;" edge="1" parent="1" source="oKQT_UKOESX0N-_K5lHX-27" target="oKQT_UKOESX0N-_K5lHX-33">
                    <mxGeometry relative="1" as="geometry">
                        <mxPoint x="450" y="120" as="targetPoint"/>
                        <Array as="points">
                            <mxPoint x="550" y="570"/>
                            <mxPoint x="550" y="380"/>
                            <mxPoint x="550" y="240"/>
                        </Array>
                    </mxGeometry>
                </mxCell>
                <mxCell id="oKQT_UKOESX0N-_K5lHX-27" value="Menu for Log in Patient" style="whiteSpace=wrap;html=1;" vertex="1" parent="1">
                    <mxGeometry x="330" y="540" width="120" height="60" as="geometry"/>
                </mxCell>
                <mxCell id="oKQT_UKOESX0N-_K5lHX-31" style="edgeStyle=none;html=1;entryX=0.5;entryY=0;entryDx=0;entryDy=0;" edge="1" parent="1" source="oKQT_UKOESX0N-_K5lHX-29" target="oKQT_UKOESX0N-_K5lHX-27">
                    <mxGeometry relative="1" as="geometry"/>
                </mxCell>
                <mxCell id="oKQT_UKOESX0N-_K5lHX-29" value="Matches with id" style="shape=process;whiteSpace=wrap;html=1;backgroundOutline=1;" vertex="1" parent="1">
                    <mxGeometry x="410" y="430" width="120" height="60" as="geometry"/>
                </mxCell>
                <mxCell id="oKQT_UKOESX0N-_K5lHX-34" style="edgeStyle=none;html=1;entryX=0.5;entryY=0;entryDx=0;entryDy=0;" edge="1" parent="1" source="oKQT_UKOESX0N-_K5lHX-33" target="gASkY3hg7c3eQzyyl7-c-3">
                    <mxGeometry relative="1" as="geometry"/>
                </mxCell>
                <mxCell id="oKQT_UKOESX0N-_K5lHX-35" style="edgeStyle=none;html=1;entryX=0.5;entryY=0;entryDx=0;entryDy=0;" edge="1" parent="1" source="oKQT_UKOESX0N-_K5lHX-33" target="gASkY3hg7c3eQzyyl7-c-2">
                    <mxGeometry relative="1" as="geometry"/>
                </mxCell>
                <mxCell id="oKQT_UKOESX0N-_K5lHX-36" style="edgeStyle=none;html=1;entryX=0.5;entryY=0;entryDx=0;entryDy=0;" edge="1" parent="1" source="oKQT_UKOESX0N-_K5lHX-33" target="gASkY3hg7c3eQzyyl7-c-1">
                    <mxGeometry relative="1" as="geometry"/>
                </mxCell>
                <mxCell id="oKQT_UKOESX0N-_K5lHX-33" value="Main Menu" style="rounded=1;whiteSpace=wrap;html=1;" vertex="1" parent="1">
                    <mxGeometry x="330" y="60" width="120" height="60" as="geometry"/>
                </mxCell>
                <mxCell id="oKQT_UKOESX0N-_K5lHX-42" value="" style="edgeStyle=none;html=1;" edge="1" parent="1" source="oKQT_UKOESX0N-_K5lHX-40" target="oKQT_UKOESX0N-_K5lHX-41">
                    <mxGeometry relative="1" as="geometry"/>
                </mxCell>
                <mxCell id="oKQT_UKOESX0N-_K5lHX-40" value="Authentication for Admin" style="shape=process;whiteSpace=wrap;html=1;backgroundOutline=1;" vertex="1" parent="1">
                    <mxGeometry x="620" y="340" width="120" height="60" as="geometry"/>
                </mxCell>
                <mxCell id="S9lJR4k2By5XDsyafu9G-2" value="" style="edgeStyle=none;html=1;entryX=0.5;entryY=0;entryDx=0;entryDy=0;" edge="1" parent="1" source="oKQT_UKOESX0N-_K5lHX-41" target="S9lJR4k2By5XDsyafu9G-1">
                    <mxGeometry relative="1" as="geometry"/>
                </mxCell>
                <mxCell id="S9lJR4k2By5XDsyafu9G-5" style="edgeStyle=none;html=1;entryX=0.5;entryY=0;entryDx=0;entryDy=0;" edge="1" parent="1" source="oKQT_UKOESX0N-_K5lHX-41" target="S9lJR4k2By5XDsyafu9G-4">
                    <mxGeometry relative="1" as="geometry"/>
                </mxCell>
                <mxCell id="S9lJR4k2By5XDsyafu9G-8" style="edgeStyle=none;html=1;entryX=0.5;entryY=0;entryDx=0;entryDy=0;" edge="1" parent="1" source="oKQT_UKOESX0N-_K5lHX-41" target="S9lJR4k2By5XDsyafu9G-7">
                    <mxGeometry relative="1" as="geometry"/>
                </mxCell>
                <mxCell id="S9lJR4k2By5XDsyafu9G-12" style="edgeStyle=none;html=1;startArrow=none;startFill=0;endArrow=classic;endFill=1;entryX=1;entryY=0.5;entryDx=0;entryDy=0;exitX=1;exitY=0.5;exitDx=0;exitDy=0;" edge="1" parent="1" source="oKQT_UKOESX0N-_K5lHX-41" target="oKQT_UKOESX0N-_K5lHX-33">
                    <mxGeometry relative="1" as="geometry">
                        <mxPoint x="770" y="130" as="targetPoint"/>
                        <mxPoint x="780" y="580" as="sourcePoint"/>
                        <Array as="points">
                            <mxPoint x="800" y="570"/>
                            <mxPoint x="800" y="130"/>
                        </Array>
                    </mxGeometry>
                </mxCell>
                <mxCell id="oKQT_UKOESX0N-_K5lHX-41" value="Menu for Admin" style="whiteSpace=wrap;html=1;" vertex="1" parent="1">
                    <mxGeometry x="620" y="540" width="120" height="60" as="geometry"/>
                </mxCell>
                <mxCell id="S9lJR4k2By5XDsyafu9G-10" style="edgeStyle=none;html=1;entryX=0;entryY=0.5;entryDx=0;entryDy=0;endArrow=none;endFill=0;" edge="1" parent="1" source="S9lJR4k2By5XDsyafu9G-1" target="S9lJR4k2By5XDsyafu9G-4">
                    <mxGeometry relative="1" as="geometry"/>
                </mxCell>
                <mxCell id="S9lJR4k2By5XDsyafu9G-11" style="edgeStyle=none;html=1;entryX=0;entryY=0.5;entryDx=0;entryDy=0;endArrow=classic;endFill=1;exitX=0;exitY=0.5;exitDx=0;exitDy=0;" edge="1" parent="1" source="S9lJR4k2By5XDsyafu9G-1" target="oKQT_UKOESX0N-_K5lHX-41">
                    <mxGeometry relative="1" as="geometry">
                        <mxPoint x="370" y="700" as="sourcePoint"/>
                        <Array as="points">
                            <mxPoint x="400" y="690"/>
                            <mxPoint x="400" y="640"/>
                            <mxPoint x="450" y="640"/>
                        </Array>
                    </mxGeometry>
                </mxCell>
                <mxCell id="S9lJR4k2By5XDsyafu9G-1" value="Menu Admin &lt;br&gt;Hostpital" style="whiteSpace=wrap;html=1;" vertex="1" parent="1">
                    <mxGeometry x="430" y="660" width="120" height="60" as="geometry"/>
                </mxCell>
                <mxCell id="S9lJR4k2By5XDsyafu9G-9" style="edgeStyle=none;html=1;entryX=0;entryY=0.5;entryDx=0;entryDy=0;endArrow=none;endFill=0;" edge="1" parent="1" source="S9lJR4k2By5XDsyafu9G-4" target="S9lJR4k2By5XDsyafu9G-7">
                    <mxGeometry relative="1" as="geometry"/>
                </mxCell>
                <mxCell id="S9lJR4k2By5XDsyafu9G-4" value="Menu&amp;nbsp; Admin&lt;br&gt;Paciente" style="whiteSpace=wrap;html=1;" vertex="1" parent="1">
                    <mxGeometry x="580" y="660" width="120" height="60" as="geometry"/>
                </mxCell>
                <mxCell id="S9lJR4k2By5XDsyafu9G-7" value="Menu&amp;nbsp; Admin&lt;br&gt;Doctor" style="whiteSpace=wrap;html=1;" vertex="1" parent="1">
                    <mxGeometry x="720" y="660" width="120" height="60" as="geometry"/>
                </mxCell>
            </root>
        </mxGraphModel>
    </diagram>
</mxfile>